# Blender v2.81 (sub 16) OBJ File: 'faretto_model.blend'
# www.blender.org
mtllib faretto_sl.mtl
o faretto_basso_faretto_basso9
v 0.085798 -0.500932 -0.431336
v 0.085798 -0.500932 0.431335
v 0.168299 -0.500932 0.406309
v 0.244332 -0.500932 0.365668
v 0.310976 -0.500932 0.310975
v 0.365669 -0.500932 0.244332
v 0.406309 -0.500932 0.168298
v 0.431336 -0.500932 0.085798
v 0.439786 -0.500932 -0.000000
v 0.431336 -0.500932 -0.085798
v 0.406309 -0.500932 -0.168299
v 0.365669 -0.500932 -0.244332
v 0.310976 -0.500932 -0.310976
v 0.244332 -0.500932 -0.365669
v 0.168299 -0.500932 -0.406309
v 0.000000 -0.500932 0.439786
v -0.085798 -0.500932 0.431335
v -0.168299 -0.500932 0.406309
v -0.244332 -0.500932 0.365668
v -0.310976 -0.500932 0.310975
v -0.365669 -0.500932 0.244332
v -0.406309 -0.500932 0.168298
v -0.431336 -0.500932 0.085798
v -0.439786 -0.500932 -0.000000
v -0.431336 -0.500932 -0.085798
v -0.406309 -0.500932 -0.168299
v -0.365669 -0.500932 -0.244332
v -0.310976 -0.500932 -0.310976
v -0.244332 -0.500932 -0.365669
v -0.168299 -0.500932 -0.406309
v -0.085798 -0.500932 -0.431336
v 0.000000 -0.500932 -0.439786
v 0.079523 -0.468055 -0.399790
v 0.079523 -0.468055 0.399789
v 0.155990 -0.468055 0.376593
v 0.226463 -0.468055 0.338925
v 0.288232 -0.468055 0.288232
v 0.338925 -0.468055 0.226462
v 0.376593 -0.468055 0.155990
v 0.399790 -0.468055 0.079523
v 0.407622 -0.468055 -0.000000
v 0.399789 -0.468055 -0.079523
v 0.376593 -0.468055 -0.155990
v 0.338925 -0.468055 -0.226463
v 0.288232 -0.468055 -0.288232
v 0.226463 -0.468055 -0.338925
v 0.155990 -0.468055 -0.376594
v 0.000000 -0.468055 0.407622
v -0.079523 -0.468055 0.399789
v -0.155990 -0.468055 0.376593
v -0.226463 -0.468055 0.338925
v -0.288232 -0.468055 0.288232
v -0.338925 -0.468055 0.226462
v -0.376593 -0.468055 0.155990
v -0.399790 -0.468055 0.079523
v -0.407622 -0.468055 -0.000000
v -0.399789 -0.468055 -0.079523
v -0.376593 -0.468055 -0.155990
v -0.338925 -0.468055 -0.226463
v -0.288232 -0.468055 -0.288232
v -0.226463 -0.468055 -0.338925
v -0.155990 -0.468055 -0.376594
v -0.079523 -0.468055 -0.399790
v 0.000000 -0.468055 -0.407622
vt 0.590165 0.953289
vt 0.676865 0.926989
vt 0.756768 0.884280
vt 0.826803 0.826804
vt 0.884280 0.756768
vt 0.926989 0.676865
vt 0.953289 0.590165
vt 0.962170 0.500000
vt 0.953289 0.409835
vt 0.926989 0.323136
vt 0.884280 0.243232
vt 0.826803 0.173197
vt 0.756768 0.115720
vt 0.676865 0.073011
vt 0.590165 0.046711
vt 0.500000 0.037830
vt 0.409835 0.046711
vt 0.323135 0.073011
vt 0.243232 0.115720
vt 0.173196 0.173197
vt 0.115720 0.243232
vt 0.073011 0.323136
vt 0.046711 0.409835
vt 0.037830 0.500000
vt 0.046711 0.590165
vt 0.073011 0.676865
vt 0.115720 0.756768
vt 0.173196 0.826804
vt 0.243232 0.884280
vt 0.323135 0.926989
vt 0.409835 0.953289
vt 0.500000 0.962170
vt 0.071631 0.500000
vt 0.079862 0.416430
vt 0.104239 0.336071
vt 0.143825 0.262011
vt 0.197098 0.197098
vt 0.262011 0.143825
vt 0.336070 0.104239
vt 0.416430 0.079863
vt 0.500000 0.071632
vt 0.583571 0.079863
vt 0.663930 0.104239
vt 0.737989 0.143825
vt 0.802902 0.197098
vt 0.856175 0.262011
vt 0.895761 0.336071
vt 0.920138 0.416430
vt 0.928369 0.500000
vt 0.920138 0.583571
vt 0.895761 0.663930
vt 0.856175 0.737989
vt 0.802902 0.802902
vt 0.737989 0.856176
vt 0.663930 0.895761
vt 0.583571 0.920138
vt 0.500000 0.928369
vt 0.416429 0.920138
vt 0.336070 0.895761
vt 0.262011 0.856176
vt 0.197098 0.802902
vt 0.143825 0.737989
vt 0.104239 0.663930
vt 0.079862 0.583571
vt 0.431882 0.842454
vt 0.500000 0.849163
vt 0.568118 0.842454
vt 0.253105 0.746895
vt 0.746895 0.746895
vt 0.633619 0.822584
vt 0.693984 0.790318
vt 0.406996 0.967561
vt 0.500000 0.976721
vt 0.593004 0.967561
vt 0.306016 0.790318
vt 0.366381 0.822584
vt 0.209682 0.693984
vt 0.790318 0.693984
vt 0.157547 0.568118
vt 0.822584 0.633619
vt 0.842453 0.568118
vt 0.177416 0.633619
vt 0.150837 0.500000
vt 0.849163 0.500000
vt 0.177416 0.366382
vt 0.842454 0.431882
vt 0.157546 0.431882
vt 0.822584 0.366382
vt 0.209682 0.306016
vt 0.790318 0.306016
vt 0.253105 0.253105
vt 0.746895 0.253105
vt 0.306016 0.209682
vt 0.693984 0.209682
vt 0.366381 0.177416
vt 0.633619 0.177416
vt 0.500000 0.150838
vt 0.568118 0.157547
vt 0.431882 0.157547
vt 0.162908 0.837093
vt 0.235148 0.896379
vt 0.317567 0.940433
vt 0.764852 0.896379
vt 0.837092 0.837093
vt 0.682433 0.940433
vt 0.103621 0.764852
vt 0.896379 0.764852
vt 0.967561 0.593004
vt 0.059568 0.317567
vt 0.023279 0.500000
vt 0.032439 0.593004
vt 0.059568 0.682433
vt 0.976721 0.500000
vt 0.940432 0.317567
vt 0.967561 0.406997
vt 0.032439 0.406997
vt 0.103621 0.235148
vt 0.896379 0.235148
vt 0.162908 0.162908
vt 0.837092 0.162908
vt 0.235148 0.103621
vt 0.764852 0.103621
vt 0.317567 0.059568
vt 0.682433 0.059568
vt 0.500000 0.023280
vt 0.593004 0.032440
vt 0.406996 0.032440
vt 0.940432 0.682433
vn 0.0000 -1.0000 0.0000
vn 0.0000 1.0000 0.0000
vn -0.5539 0.6976 -0.4545
vn 0.7130 0.6976 0.0702
vn -0.7130 0.6976 0.0702
vn 0.3378 0.6976 -0.6319
vn -0.4545 0.6976 -0.5539
vn 0.4545 0.6976 -0.5539
vn -0.2080 0.6976 -0.6856
vn 0.6856 0.6976 -0.2080
vn -0.3378 0.6976 -0.6319
vn 0.5539 0.6976 0.4545
vn 0.6319 0.6976 -0.3378
vn 0.4545 0.6976 0.5539
vn 0.0702 0.6976 -0.7130
vn 0.2080 0.6976 -0.6856
vn -0.2080 0.6976 0.6856
vn 0.0702 0.6976 0.7130
vn -0.0702 0.6976 -0.7130
vn -0.3378 0.6976 0.6319
vn 0.2080 0.6976 0.6856
vn -0.6856 0.6976 -0.2080
vn -0.0702 0.6976 0.7130
vn 0.3378 0.6976 0.6319
vn -0.4545 0.6976 0.5539
vn -0.7130 0.6976 -0.0702
vn 0.7130 0.6976 -0.0702
vn -0.5539 0.6976 0.4545
vn -0.6319 0.6976 0.3378
vn 0.6319 0.6976 0.3378
vn -0.6856 0.6976 0.2080
vn 0.6856 0.6976 0.2080
vn -0.6319 0.6976 -0.3378
vn 0.5539 0.6976 -0.4545
usemtl Default_OBJ
s off
f 1/1/1 15/2/1 14/3/1 13/4/1 12/5/1 11/6/1 10/7/1 9/8/1 8/9/1 7/10/1 6/11/1 5/12/1 4/13/1 3/14/1 2/15/1 16/16/1 17/17/1 18/18/1 19/19/1 20/20/1 21/21/1 22/22/1 23/23/1 24/24/1 25/25/1 26/26/1 27/27/1 28/28/1 29/29/1 30/30/1 31/31/1 32/32/1
f 56/33/2 55/34/2 54/35/2 53/36/2 52/37/2 51/38/2 50/39/2 49/40/2 48/41/2 34/42/2 35/43/2 36/44/2 37/45/2 38/46/2 39/47/2 40/48/2 41/49/2 42/50/2 43/51/2 44/52/2 45/53/2 46/54/2 47/55/2 33/56/2 64/57/2 63/58/2 62/59/2 61/60/2 60/61/2 59/62/2 58/63/2 57/64/2
f 28/28/3 27/27/3 59/62/3 60/61/3
f 8/9/4 9/8/4 41/49/4 40/48/4
f 24/24/5 23/23/5 55/34/5 56/33/5
f 14/3/6 15/2/6 47/55/6 46/54/6
f 29/29/7 28/28/7 60/61/7 61/60/7
f 13/4/8 14/3/8 46/54/8 45/53/8
f 31/31/9 30/30/9 62/59/9 63/58/9
f 10/7/10 11/6/10 43/51/10 42/50/10
f 30/30/11 29/29/11 61/60/11 62/59/11
f 5/12/12 6/11/12 38/46/12 37/45/12
f 11/6/13 12/5/13 44/52/13 43/51/13
f 4/13/14 5/12/14 37/45/14 36/44/14
f 1/1/15 32/32/15 64/57/15 33/56/15
f 15/2/16 1/1/16 33/56/16 47/55/16
f 18/18/17 17/17/17 49/40/17 50/39/17
f 16/16/18 2/15/18 34/42/18 48/41/18
f 32/32/19 31/31/19 63/58/19 64/57/19
f 19/19/20 18/18/20 50/39/20 51/38/20
f 2/15/21 3/14/21 35/43/21 34/42/21
f 26/26/22 25/25/22 57/64/22 58/63/22
f 17/17/23 16/16/23 48/41/23 49/40/23
f 3/14/24 4/13/24 36/44/24 35/43/24
f 20/20/25 19/19/25 51/38/25 52/37/25
f 25/25/26 24/24/26 56/33/26 57/64/26
f 9/8/27 10/7/27 42/50/27 41/49/27
f 21/21/28 20/20/28 52/37/28 53/36/28
f 22/22/29 21/21/29 53/36/29 54/35/29
f 6/11/30 7/10/30 39/47/30 38/46/30
f 23/23/31 22/22/31 54/35/31 55/34/31
f 7/10/32 8/9/32 40/48/32 39/47/32
f 27/27/33 26/26/33 58/63/33 59/62/33
f 12/5/34 13/4/34 45/53/34 44/52/34
f 63/65/1 64/66/1 33/67/1
f 33/67/1 60/68/1 63/65/1
f 33/67/1 45/69/1 60/68/1
f 33/67/1 47/70/1 45/69/1
f 46/71/1 45/69/1 47/70/1
f 31/72/1 32/73/1 1/74/1
f 60/68/1 61/75/1 62/76/1
f 59/77/1 60/68/1 45/69/1
f 59/77/1 45/69/1 44/78/1
f 44/78/1 57/79/1 59/77/1
f 43/80/1 42/81/1 44/78/1
f 44/78/1 42/81/1 57/79/1
f 57/79/1 58/82/1 59/77/1
f 56/83/1 57/79/1 42/81/1
f 56/83/1 42/81/1 41/84/1
f 41/84/1 54/85/1 56/83/1
f 40/86/1 54/85/1 41/84/1
f 54/85/1 55/87/1 56/83/1
f 39/88/1 53/89/1 40/86/1
f 60/68/1 62/76/1 63/65/1
f 53/89/1 39/88/1 38/90/1
f 52/91/1 53/89/1 38/90/1
f 52/91/1 38/90/1 37/92/1
f 51/93/1 52/91/1 37/92/1
f 51/93/1 37/92/1 36/94/1
f 50/95/1 51/93/1 36/94/1
f 50/95/1 36/94/1 35/96/1
f 35/96/1 48/97/1 50/95/1
f 34/98/1 48/97/1 35/96/1
f 48/97/1 49/99/1 50/95/1
f 53/89/1 54/85/1 40/86/1
f 1/74/1 28/100/1 31/72/1
f 28/100/1 29/101/1 30/102/1
f 14/103/1 13/104/1 15/105/1
f 28/100/1 30/102/1 31/72/1
f 28/100/1 1/74/1 13/104/1
f 27/106/1 28/100/1 13/104/1
f 13/104/1 1/74/1 15/105/1
f 13/104/1 12/107/1 10/108/1
f 22/109/1 24/110/1 25/111/1
f 25/111/1 26/112/1 27/106/1
f 25/111/1 13/104/1 10/108/1
f 10/108/1 22/109/1 25/111/1
f 9/113/1 7/114/1 10/108/1
f 7/114/1 22/109/1 10/108/1
f 9/113/1 8/115/1 7/114/1
f 23/116/1 24/110/1 22/109/1
f 25/111/1 27/106/1 13/104/1
f 21/117/1 22/109/1 7/114/1
f 21/117/1 7/114/1 6/118/1
f 20/119/1 21/117/1 6/118/1
f 20/119/1 6/118/1 5/120/1
f 19/121/1 20/119/1 5/120/1
f 19/121/1 5/120/1 4/122/1
f 18/123/1 19/121/1 4/122/1
f 18/123/1 4/122/1 3/124/1
f 3/124/1 16/125/1 18/123/1
f 2/126/1 16/125/1 3/124/1
f 16/125/1 17/127/1 18/123/1
f 12/107/1 11/128/1 10/108/1
